<?xml version="1.0" encoding="UTF-8"?>
<svg width="16px" height="18px" viewBox="0 0 16 18" version="1.1" xmlns="http://www.w3.org/2000/svg" xmlns:xlink="http://www.w3.org/1999/xlink">
    <!-- Generator: Sketch 53.2 (72643) - https://sketchapp.com -->
    <title>logo-dark</title>
    <desc>Created with Sketch.</desc>
    <g id="Page-1" stroke="none" stroke-width="1" fill="none" fill-rule="evenodd">
        <g id="logo-dark" transform="translate(1.000000, 1.000000)" stroke="#0F0F0F">
            <path d="M12.2675783,0.610814332 L12.2675783,0.740586319 L12.2675783,8.51491857 C12.2675783,10.037785 11.7695401,11.296417 10.9620513,12.153746 C10.1207,13.0470358 8.91155067,13.4999348 7.36742369,13.4999348 C5.85976394,13.4999348 4.62769231,13.0314006 3.80457468,12.1454072 C3.0059422,11.2854724 2.48289784,10.0007818 2.48289784,8.48521172 L2.48289784,8.27205212 L2.48289784,8.14228013" id="Path"></path>
            <path d="M14.2170126,10.9852769 L14.185234,11.0754397 C13.117265,14.0893811 10.6286365,15.9994788 7.44192104,15.9994788 C5.3455759,15.9994788 3.45032153,15.1932248 2.10415955,13.729772 C0.76945869,12.2783062 0.0343833944,10.2504235 0.0343833944,8.01928339 C0.0343833944,5.78814332 0.76945869,3.76026059 2.10415955,2.30879479 C3.45032153,0.84534202 5.3455759,0.0390879479 7.44192104,0.0390879479 C8.4176801,0.0390879479 9.34238507,0.215765472 10.1863411,0.546188925" id="Path"></path>
        </g>
    </g>
</svg>