<svg width="244" height="244" xmlns="http://www.w3.org/2000/svg"><g fill="none" fill-rule="evenodd"><path d="M96 132c8.837 0 16 7.163 16 16v80c0 8.837-7.163 16-16 16H48c-26.51 0-48-21.49-48-48v-48c0-8.837 7.163-16 16-16h80zm-20 20H36c-8.837 0-16 7.163-16 16v20c0 19.882 16.118 36 36 36h20c8.837 0 16-7.163 16-16v-40c0-8.837-7.163-16-16-16zM96 0c8.837 0 16 7.163 16 16v80c0 8.837-7.163 16-16 16H16c-8.837 0-16-7.163-16-16V16C0 7.163 7.163 0 16 0h80zM76 20H36c-8.837 0-16 7.163-16 16v40c0 8.837 7.163 16 16 16h40c8.837 0 16-7.163 16-16V36c0-8.837-7.163-16-16-16z" fill="#FFF"/><path d="M228 0c8.837 0 16 7.163 16 16v48c0 26.51-21.49 48-48 48h-48c-8.837 0-16-7.163-16-16V48c0-26.51 21.49-48 48-48zm-20 20h-20c-19.882 0-36 16.118-36 36v20c0 8.837 7.163 16 16 16h20c19.882 0 36-16.118 36-36V36c0-8.837-7.163-16-16-16z" fill="#886AA1"/><path d="M196 244c26.51 0 48-21.49 48-48v-16c0-26.51-21.49-48-48-48h-48c-8.837 0-16 7.163-16 16v48c0 26.51 21.49 48 48 48h16zm-8-20c-19.882 0-36-16.118-36-36v-20c0-8.837 7.163-16 16-16h20c19.882 0 36 16.118 36 36s-16.118 36-36 36z" fill="#FFF"/></g></svg>